<svg width="1400" height="900" viewBox="0 0 1400 900" fill="none" xmlns="http://www.w3.org/2000/svg">
  <rect width="1400" height="900" rx="40" fill="#102C3C"/>
  <rect x="118" y="152" width="324" height="520" rx="28" fill="#143446" stroke="#8ED1E8" stroke-opacity="0.3"/>
  <rect x="538" y="112" width="324" height="600" rx="28" fill="#1C5268" stroke="#8ED1E8" stroke-opacity="0.36"/>
  <rect x="958" y="196" width="324" height="436" rx="28" fill="#163C50" stroke="#8ED1E8" stroke-opacity="0.3"/>
  <g opacity="0.9">
    <rect x="168" y="228" width="224" height="18" rx="9" fill="#E8F6FB" fill-opacity="0.8"/>
    <rect x="168" y="278" width="194" height="14" rx="7" fill="#73E0FF" fill-opacity="0.8"/>
    <rect x="168" y="332" width="224" height="18" rx="9" fill="#E8F6FB" fill-opacity="0.8"/>
    <rect x="168" y="382" width="174" height="14" rx="7" fill="#73E0FF" fill-opacity="0.8"/>
    <rect x="168" y="436" width="224" height="18" rx="9" fill="#E8F6FB" fill-opacity="0.8"/>
    <rect x="168" y="486" width="184" height="14" rx="7" fill="#73E0FF" fill-opacity="0.8"/>
    <rect x="588" y="188" width="224" height="18" rx="9" fill="#E8F6FB" fill-opacity="0.9"/>
    <rect x="588" y="238" width="204" height="14" rx="7" fill="#ADEFFF" fill-opacity="0.9"/>
    <rect x="588" y="302" width="224" height="18" rx="9" fill="#E8F6FB" fill-opacity="0.9"/>
    <rect x="588" y="352" width="188" height="14" rx="7" fill="#ADEFFF" fill-opacity="0.9"/>
    <rect x="588" y="416" width="224" height="18" rx="9" fill="#E8F6FB" fill-opacity="0.9"/>
    <rect x="588" y="466" width="214" height="14" rx="7" fill="#ADEFFF" fill-opacity="0.9"/>
    <rect x="588" y="530" width="224" height="18" rx="9" fill="#E8F6FB" fill-opacity="0.9"/>
    <rect x="588" y="580" width="164" height="14" rx="7" fill="#ADEFFF" fill-opacity="0.9"/>
    <rect x="1008" y="272" width="224" height="18" rx="9" fill="#E8F6FB" fill-opacity="0.8"/>
    <rect x="1008" y="322" width="194" height="14" rx="7" fill="#73E0FF" fill-opacity="0.8"/>
    <rect x="1008" y="386" width="224" height="18" rx="9" fill="#E8F6FB" fill-opacity="0.8"/>
    <rect x="1008" y="436" width="154" height="14" rx="7" fill="#73E0FF" fill-opacity="0.8"/>
  </g>
</svg>