<svg width="1200" height="630" viewBox="0 0 1200 630" fill="none" xmlns="http://www.w3.org/2000/svg">
  <rect width="1200" height="630" rx="36" fill="#0B1015"/>
  <rect x="24" y="24" width="1152" height="582" rx="30" fill="url(#bg)" stroke="rgba(255,255,255,0.08)"/>
  <circle cx="980" cy="122" r="180" fill="url(#glow)" fill-opacity="0.55"/>
  <text x="88" y="124" fill="#8ED1E8" font-family="Inter, Arial, sans-serif" font-size="20" font-weight="700" letter-spacing="0.22em">MODULARDATACENTERS.AI</text>
  <text x="88" y="208" fill="#FFFFFF" font-family="Inter, Arial, sans-serif" font-size="66" font-weight="700">The market map for data</text>
  <text x="88" y="284" fill="#FFFFFF" font-family="Inter, Arial, sans-serif" font-size="66" font-weight="700">center infrastructure</text>
  <text x="88" y="352" fill="#C4D4DE" font-family="Inter, Arial, sans-serif" font-size="31" font-weight="500">Explore suppliers, categories, and adjacent infrastructure layers across modular delivery, power, cooling, hosting, and operations.</text>

  <g opacity="0.98">
    <rect x="88" y="420" width="236" height="54" rx="27" fill="#15384D" stroke="rgba(255,255,255,0.08)"/>
    <text x="124" y="454" fill="#FFFFFF" font-family="Inter, Arial, sans-serif" font-size="24" font-weight="700">Explore categories</text>
    <rect x="344" y="420" width="224" height="54" rx="27" fill="rgba(255,255,255,0.06)" stroke="rgba(255,255,255,0.12)"/>
    <text x="380" y="454" fill="#D6E2E9" font-family="Inter, Arial, sans-serif" font-size="24" font-weight="700">Browse companies</text>
  </g>

  <g>
    <rect x="742" y="144" width="364" height="324" rx="28" fill="rgba(9,15,20,0.38)" stroke="rgba(255,255,255,0.08)"/>
    <text x="778" y="192" fill="#E8F6FB" font-family="Inter, Arial, sans-serif" font-size="24" font-weight="700">Coverage graph</text>

    <path d="M792 236H1052" stroke="#294A60" stroke-width="6" stroke-linecap="round"/>
    <path d="M792 306H1052" stroke="#294A60" stroke-width="6" stroke-linecap="round"/>
    <path d="M792 376H1052" stroke="#294A60" stroke-width="6" stroke-linecap="round"/>

    <circle cx="824" cy="236" r="12" fill="#E8F6FB"/>
    <circle cx="904" cy="236" r="12" fill="#8ED1E8"/>
    <circle cx="996" cy="236" r="12" fill="#E8F6FB"/>

    <circle cx="860" cy="306" r="12" fill="#8ED1E8"/>
    <circle cx="948" cy="306" r="12" fill="#E8F6FB"/>
    <circle cx="1034" cy="306" r="12" fill="#8ED1E8"/>

    <circle cx="812" cy="376" r="12" fill="#E8F6FB"/>
    <circle cx="900" cy="376" r="12" fill="#8ED1E8"/>
    <circle cx="980" cy="376" r="12" fill="#E8F6FB"/>

    <path d="M824 236C840 256 848 274 860 306" stroke="#73E0FF" stroke-width="6" stroke-linecap="round"/>
    <path d="M904 236C886 258 874 278 860 306" stroke="#8ED1E8" stroke-width="6" stroke-linecap="round"/>
    <path d="M904 236C920 257 934 281 948 306" stroke="#73E0FF" stroke-width="6" stroke-linecap="round"/>
    <path d="M996 236C978 254 964 278 948 306" stroke="#8ED1E8" stroke-width="6" stroke-linecap="round"/>
    <path d="M996 236C1010 256 1022 278 1034 306" stroke="#73E0FF" stroke-width="6" stroke-linecap="round"/>

    <path d="M860 306C846 326 832 347 812 376" stroke="#8ED1E8" stroke-width="6" stroke-linecap="round"/>
    <path d="M860 306C874 329 886 350 900 376" stroke="#73E0FF" stroke-width="6" stroke-linecap="round"/>
    <path d="M948 306C931 325 918 347 900 376" stroke="#8ED1E8" stroke-width="6" stroke-linecap="round"/>
    <path d="M948 306C960 326 970 347 980 376" stroke="#73E0FF" stroke-width="6" stroke-linecap="round"/>

    <text x="778" y="442" fill="#B7C9D4" font-family="Inter, Arial, sans-serif" font-size="20" font-weight="500">Categories → adjacency → vendor coverage</text>
  </g>

  <defs>
    <linearGradient id="bg" x1="74" y1="42" x2="1118" y2="588" gradientUnits="userSpaceOnUse">
      <stop stop-color="#102C3C"/>
      <stop offset="1" stop-color="#17394A"/>
    </linearGradient>
    <radialGradient id="glow" cx="0" cy="0" r="1" gradientUnits="userSpaceOnUse" gradientTransform="translate(980 122) rotate(90) scale(180)">
      <stop stop-color="#8ED1E8"/>
      <stop offset="1" stop-color="#8ED1E8" stop-opacity="0"/>
    </radialGradient>
  </defs>
</svg>
