<svg width="1200" height="630" viewBox="0 0 1200 630" fill="none" xmlns="http://www.w3.org/2000/svg">
  <rect width="1200" height="630" rx="36" fill="#0F2230"/>
  <rect x="28" y="28" width="1144" height="574" rx="30" fill="url(#panel)" stroke="rgba(255,255,255,0.08)"/>
  <circle cx="951" cy="166" r="210" fill="url(#glow)" fill-opacity="0.55"/>
  <circle cx="964" cy="184" r="136" stroke="#8ED1E8" stroke-opacity="0.28" stroke-width="2"/>
  <circle cx="964" cy="184" r="92" stroke="#8ED1E8" stroke-opacity="0.18" stroke-width="2"/>
  <path d="M788 383C842 304 935 261 1037 272C1084 278 1127 297 1160 326V522H739C741 472 757 427 788 383Z" fill="url(#surface)" fill-opacity="0.95"/>
  <path d="M829 424C867 372 929 342 996 342C1052 342 1104 363 1144 401" stroke="#8ED1E8" stroke-opacity="0.5" stroke-width="3" stroke-linecap="round"/>
  <path d="M812 458H1092" stroke="#8ED1E8" stroke-opacity="0.35" stroke-width="3" stroke-linecap="round"/>
  <path d="M834 496H1062" stroke="#8ED1E8" stroke-opacity="0.25" stroke-width="3" stroke-linecap="round"/>
  <rect x="96" y="118" width="84" height="84" rx="24" fill="#14384D" stroke="rgba(255,255,255,0.1)"/>
  <path d="M121 160C141 122 173 118 189 140C201 156 197 178 179 191C168 199 154 205 141 212C137 198 132 183 121 160Z" fill="#8ED1E8" fill-opacity="0.92"/>
  <text x="96" y="278" fill="#8ED1E8" font-family="Inter, Arial, sans-serif" font-size="20" font-weight="700" letter-spacing="0.24em">MODULARDATACENTERS.AI</text>
  <text x="96" y="346" fill="#FFFFFF" font-family="Inter, Arial, sans-serif" font-size="62" font-weight="700">Wide category graph for</text>
  <text x="96" y="418" fill="#FFFFFF" font-family="Inter, Arial, sans-serif" font-size="62" font-weight="700">data center infrastructure</text>
  <text x="96" y="484" fill="#B7C9D4" font-family="Inter, Arial, sans-serif" font-size="30" font-weight="500">Explore suppliers, systems, and adjacent infrastructure layers across power, cooling, modular, hosting, and operations.</text>
  <g opacity="0.96">
    <rect x="96" y="528" width="260" height="54" rx="27" fill="#15384D" stroke="rgba(255,255,255,0.08)"/>
    <text x="128" y="562" fill="#FFFFFF" font-family="Inter, Arial, sans-serif" font-size="24" font-weight="700">Explore categories</text>
    <rect x="376" y="528" width="236" height="54" rx="27" fill="rgba(255,255,255,0.06)" stroke="rgba(255,255,255,0.12)"/>
    <text x="414" y="562" fill="#D6E2E9" font-family="Inter, Arial, sans-serif" font-size="24" font-weight="700">Browse vendors</text>
  </g>
  <defs>
    <linearGradient id="panel" x1="96" y1="84" x2="1084" y2="554" gradientUnits="userSpaceOnUse">
      <stop stop-color="#102C3C"/>
      <stop offset="1" stop-color="#16384D"/>
    </linearGradient>
    <radialGradient id="glow" cx="0" cy="0" r="1" gradientUnits="userSpaceOnUse" gradientTransform="translate(951 166) rotate(90) scale(210)">
      <stop stop-color="#8ED1E8"/>
      <stop offset="1" stop-color="#8ED1E8" stop-opacity="0"/>
    </radialGradient>
    <linearGradient id="surface" x1="739" y1="306" x2="1134" y2="522" gradientUnits="userSpaceOnUse">
      <stop stop-color="#214D67"/>
      <stop offset="1" stop-color="#122A39"/>
    </linearGradient>
  </defs>
</svg>
